# xmcd
#
# Track frame offsets:
#	150
#	23673
#	45140
#	66976
#	90099
#	101765
#	119240
#	138926
#	159759
#
# Disc length: 2415 seconds
#
# Revision: 10
# Processed by: cddbd v1.5.2PL0 Copyright (c) Steve Scherf et al.
# Submitted via: Jack! The Knife 20 Magnifico
#
DISCID=66096d09
DTITLE=Nek - In Te
DYEAR=1993
DGENRE=Pop
TTITLE0=Uomo con te
TTITLE1=Il muro di Berlino c'è
TTITLE2=In te
TTITLE3=2 come noi
TTITLE4=Jane
TTITLE5=Amami
TTITLE6=Figli di chi
TTITLE7=Rimani qui
TTITLE8=Amico mio
EXTD=
EXTT0=Nek, Isgrò
EXTT1=Nek, Isgrò
EXTT2=Nek, Isgrò
EXTT3=Nek, Isgrò, Urzino, Varini, Verrascina
EXTT4=Nek
EXTT5=Nek, Varini, Verrascina
EXTT6=Nek, Isgrò
EXTT7=Nek, Isgrò, Neri
EXTT8=Nek, Isgrò
PLAYORDER=
